# xmcd
#
# Track frame offsets: 
#        150
#        11725
#        26355
#        35902
#        46247
#        58370
#        69470
#        79545
#        93000
#        101067
#        115552
#        124867
#        136412
#        154780
#        170712
#        185497
#        200734
#        215752
#        230772
#        244325
#        261812
#        278587
#        291280
#        305690
#        318015
#
# Disc length: 4415 seconds
#
# Revision: 4
# Processed by: cddbd v1.5.2PL0 Copyright (c) Steve Scherf et al.
# Submitted via: ExactAudioCopy v0.99pb4
#
DISCID=71113d19
DTITLE=Frank Sinatra - The Complete Reprise Studio Recordings  CD4
DYEAR=1995
DGENRE=Vocal
TTITLE0=I'm Beginining To See The Light
TTITLE1=I Get A Kick Out Of You
TTITLE2=Ain't She Sweet ?
TTITLE3=I Love You
TTITLE4=They Can't Take That Away From Me
TTITLE5=Love Is Just Around The Corner
TTITLE6=At Long Last Love
TTITLE7=Serenade In Blue
TTITLE8=Goody Goody
TTITLE9=Don'Cha Go 'Way Mad
TTITLE10=Tangerine
TTITLE11=Pick Yourself Up
TTITLE12=If I Had You
TTITLE13=The Very Thought Of You
TTITLE14=I'll Follow My Secret Heart
TTITLE15=A Garden In The Rain
TTITLE16=London By Night
TTITLE17=The Gypsy
TTITLE18=Roses Of Picardy
TTITLE19=A Nightingale Sang In Berkeley Square
TTITLE20=We'll Meet Again
TTITLE21=Now Is The Hour
TTITLE22=We'll Gather Lilacs In The Spring
TTITLE23=The Look Of Love
TTITLE24=I Left My Heart In San Francisco
EXTD=YEAR: 1995
EXTT0=
EXTT1=
EXTT2=
EXTT3=
EXTT4=
EXTT5=
EXTT6=
EXTT7=
EXTT8=
EXTT9=
EXTT10=
EXTT11=
EXTT12=
EXTT13=
EXTT14=
EXTT15=
EXTT16=
EXTT17=
EXTT18=
EXTT19=
EXTT20=
EXTT21=
EXTT22=
EXTT23=
EXTT24=
PLAYORDER=
